<svg xmlns="http://www.w3.org/2000/svg" viewBox="0 0 1800 800"><defs><style>.cls-1{isolation:isolate;}.cls-2{fill:#29abe2;}.cls-2,.cls-3,.cls-4{mix-blend-mode:multiply;}.cls-3{fill:#0071bc;}.cls-4{fill:#59b370;}.cls-5{fill:#fff;}</style></defs><g class="cls-1"><g id="Layer_1" data-name="Layer 1"><path class="cls-2" d="M458.27,276l-52.93,50.52s-54-57-121.46-57c0,0-56.94,0-96,38.89,0,0-39,38.85-39,95.83,0,0,0,39.62,17.28,70.4,0,0,17.28,30.77,48.86,48.32,0,0,31.59,17.55,70.2,17.55,0,0,32.9,0,60.2-12.3,0,0,27.25-12.25,59.91-44.68L456.64,537s-44,43-83.19,59.53c0,0-39.12,16.59-89.34,16.59,0,0-92.58,0-151.53-58.72,0,0-59-58.72-59-150.46,0,0,0-59.37,26.87-105.53,0,0,26.83-46.16,76.89-74.23,0,0,50.1-28.1,107.85-28.1,0,0,49.1,0,94.56,20.8C379.79,216.88,425.29,237.64,458.27,276Z"/><polygon class="cls-3" points="666.86 196.37 748.38 196.37 853.15 492.22 959.34 196.37 1040.87 196.37 890.76 612.83 814.37 612.83 666.86 196.37"/><rect class="cls-2" x="996.79" y="196.37" width="78.71" height="416.46"/><path class="cls-4" d="M1120.44,272.76V535.29h36.81s54.35,0,78.86-12.49c0,0,24.47-12.49,40.05-41.91,0,0,15.61-29.45,15.61-72.48,0,0,0-66.26-37.11-102.79,0,0-33.4-32.86-107.31-32.86Zm-79-76.39h94s90.89,0,135.07,22.5c0,0,44.19,22.5,72.79,73.18,0,0,28.61,50.64,28.61,118.29,0,0,0,48.17-16,88.53,0,0-16,40.32-44.18,67,0,0-28.18,26.6-61,36.8,0,0-32.82,10.21-113.85,10.21h-95.4Z"/><rect class="cls-3" x="1323.5" y="368.63" width="143.8" height="71.94"/><polygon class="cls-2" points="1398.12 196.37 1516.76 196.37 1516.76 612.83 1438.06 612.83 1438.06 270.79 1352.2 270.79 1398.12 196.37"/><path class="cls-4" d="M1610.1,373.31s22.11,0,37.11-16.12c0,0,15-16.12,15-39.93,0,0,0-24.36-15.74-40.79,0,0-15.73-16.43-36.64-16.43,0,0-22.11,0-38,16.32,0,0-15.85,16.27-15.85,40.66,0,0,0,24.05,15.42,40.17C1571.48,357.19,1586.9,373.31,1610.1,373.31Zm-9.9,250-67.34-33.41,72.72-141.52s-52.93,0-90-38c0,0-37.07-38-37.07-94.32,0,0,0-54.59,38.08-92.4,0,0,38.07-37.8,91.84-37.8,0,0,56.33,0,93.87,39.24,0,0,37.49,39.19,37.49,90.14a152.68,152.68,0,0,1-5.8,38.66s-5.79,19.37-26.75,59.92Z"/><path class="cls-4" d="M851.81,380.38A31.44,31.44,0,1,0,820.48,347L723,363.1a202,202,0,0,0-5.44-21.17l40.22-15.57a37.27,37.27,0,1,0-9.08-23.95l-40.39,15.64a203.11,203.11,0,0,0-26-42l41.5-37.54a37.31,37.31,0,1,0-15.62-17.27l-41.47,37.51a203,203,0,0,0-83.41-49.9l23-86.85a26.83,26.83,0,1,0-13.5-3.59l-23,86.82a203.38,203.38,0,0,0-45.54-5.21l-3-50.55A35.25,35.25,0,1,0,498,150.87l3,50.47A201.87,201.87,0,0,0,462,209.68l-28.95-76.9a31.4,31.4,0,1,0-19.29,6.65c.63,0,1.23-.06,1.85-.1l28.92,76.83a203.7,203.7,0,0,0-77.11,57.54L322.62,241a35,35,0,1,0-13.72,18.81l44.74,32.63a201.65,201.65,0,0,0-26.11,58.85L222.28,327.63a26.72,26.72,0,1,0-3,13.63l105.2,23.68a204.43,204.43,0,0,0-3.6,38.19c0,3.66.11,7.3.3,10.92L293,417.37a35.22,35.22,0,1,0,2.73,25.47l28.34-3.35A201.88,201.88,0,0,0,352,511.2l-84.65,57.18A31.39,31.39,0,1,0,275.16,580l84.66-57.2a206.55,206.55,0,0,0,14.37,17.55l-39.11,40a35,35,0,1,0,16.65,16.28l39.15-40.05A203.51,203.51,0,0,0,435.47,586l-34.34,77a29.11,29.11,0,1,0,12.76,5.69l34.36-77a202.45,202.45,0,0,0,75.67,14.58c.81,0,1.61,0,2.41,0l3.2,49.16a37.34,37.34,0,1,0,23.23-1.51l-3.2-49.22a201.14,201.14,0,0,0,37.12-8.3l34.59,96.52A26.75,26.75,0,1,0,636.56,688c-.72,0-1.43,0-2.14.11l-34.6-96.58a202.8,202.8,0,0,0,46.35-26.25l31.06,36.93a35.35,35.35,0,1,0,17.82-15l-31.12-37a205.18,205.18,0,0,0,21.22-23.64l80.56,57.83a31.64,31.64,0,1,0,8.18-11.33l-80.62-57.88a202.06,202.06,0,0,0,25.37-54.31l81.07,19.27a35,35,0,1,0,5.4-22.65L724,438.23a205.29,205.29,0,0,0,1.35-61.35l97.41-16.06A31.43,31.43,0,0,0,851.81,380.38Z"/><path class="cls-5" d="M659.51,404.1s5.79,0,5.79-14.79c0,0,0-14.78-5.79-14.78,0,0-6.06,0-6.06,16.27C653.45,390.8,653.45,404.1,659.51,404.1Zm-11.88,39.23,14.44-30a27.2,27.2,0,0,1-4.19.52,13.42,13.42,0,0,1-10.63-6.55s-4.07-6.55-4.07-17.32c0,0,0-10.82,4.77-18,0,0,4.78-7.22,11.64-7.22a14.74,14.74,0,0,1,11.59,6.9s4.42,6.86,4.42,18.71a77.37,77.37,0,0,1-7,29.86L657.5,443.33Zm-23.47,0V365.56h10v77.77Zm-40.77-21.19v-9.77h21.1v9.77ZM547.88,434h1.52s8.84,0,12.51-6.81c0,0,3.67-6.81,3.67-22.44,0,0,0-16.27-3.47-23.08a14,14,0,0,0-12.51-6.81h-1.72Zm-10,9.31V365.56h11.06s26.66,0,26.66,38.74c0,0,0,19.44-6.64,29.22,0,0-6.61,9.81-18.62,9.81Zm-22.93,0V365.56h10v77.77Zm-28.82,1.05L471.8,365.56h10.51L489.64,418l7.22-52.39h10.45L493,444.38ZM445.87,373.8s-5,0-7.59,8.15c0,0-2.65,8.18-2.65,22.5,0,0,0,14.81,2.73,22.73,0,0,2.74,7.91,7.72,7.91,0,0,4.77,0,7.53-8.06,0,0,2.77-8.09,2.77-22.58,0,0,0-14.73-2.8-22.7C453.58,381.75,450.82,373.8,445.87,373.8Zm.12,70.58s-9.23,0-15-10.65c0,0-5.79-10.68-5.79-29.28,0,0,0-17.55,5.47-28.73,0,0,5.47-11.2,15.34-11.2,0,0,9.54,0,15.19,11.14,0,0,5.65,11.15,5.65,28.79,0,0,0,18.74-6,29.34C460.86,433.79,454.92,444.38,446,444.38Zm-27.13-14.93V440s-5.61,4.43-11.87,4.43a18.66,18.66,0,0,1-15.46-10.25s-5.44-10.27-5.44-29.22c0,0,0-19,5.47-29.71,0,0,5.48-10.68,15.66-10.68,0,0,4.86,0,10.74,4v10.16s-5-4.92-10-4.92c0,0-6.05,0-8.73,7.07,0,0-2.68,7.08-2.68,23.58,0,0,0,16.33,2.74,23.49,0,0,2.73,7.15,9,7.15C408.27,435.09,412.61,435.09,418.86,429.45Z"/></g></g></svg>